<svg width="387" height="111" viewBox="0 0 387 111" fill="none" xmlns="http://www.w3.org/2000/svg">
<path d="M114.988 0H16.6126L12.767 25.6398H111.142L114.988 0Z" fill="white"/>
<path d="M10.0971 43.4409L6.42562 67.9197L3.86485 84.9931L0.0192216 110.633H28.9583H98.3942L102.24 84.9931H32.804L35.3647 67.9197H104.801L108.472 43.4409H39.0362H10.0971Z" fill="white"/>
<path d="M214.794 68.7252L243.515 110.754H208.401L191.071 84.0421L185.739 75.8254L185.077 76.5027L168.716 93.1742L155.611 106.534L151.472 110.754H116.5L170.747 55.4624L132.984 0H167.829L191.364 34.437L225.154 0H260.126L220.209 40.6963L208.772 52.3514L205.72 55.4624L209.767 61.3719L209.823 61.4463L214.794 68.7252Z" fill="white"/>
<path d="M278.117 0.0371094L261.51 110.761H370L386.607 0.0371094H278.117ZM344.943 85.0765H294.279L303.199 25.6025H353.863L344.943 85.0765Z" fill="white"/>
</svg>
